<?xml version="1.0" encoding="UTF-8"?>
<svg width="25px" height="25px" viewBox="0 0 25 25" version="1.1" xmlns="http://www.w3.org/2000/svg" xmlns:xlink="http://www.w3.org/1999/xlink">
    <!-- Generator: Sketch 48.2 (47327) - http://www.bohemiancoding.com/sketch -->
    <title>Group 13 Copy 4</title>
    <desc>Created with Sketch.</desc>
    <defs></defs>
    <g id="Desktop-Copy-8" stroke="none" stroke-width="1" fill="none" fill-rule="evenodd" transform="translate(-31.000000, -51.000000)">
        <g id="Group-13-Copy-4" transform="translate(31.000000, 51.000000)" fill="#616160" fill-rule="nonzero">
            <path d="M12,8.02746439 L12,0 L13,0 L13,8.02746439 C15.0858083,8.2580388 16.7419612,9.9141917 16.9725356,12 L25,12 L25,13 L16.9725356,13 C16.7419612,15.0858083 15.0858083,16.7419612 13,16.9725356 L13,25 L12,25 L12,16.9725356 C9.9141917,16.7419612 8.2580388,15.0858083 8.02746439,13 L0,13 L0,12 L8.02746439,12 C8.2580388,9.9141917 9.9141917,8.2580388 12,8.02746439 Z M12,8.02746439 L12,12 L8.02746439,12 C8.00931666,12.1641669 8,12.3309955 8,12.5 C8,12.6690045 8.00931666,12.8358331 8.02746439,13 L12,13 L12,16.9725356 C12.1641669,16.9906833 12.3309955,17 12.5,17 C12.6690045,17 12.8358331,16.9906833 13,16.9725356 L13,13 L16.9725356,13 C16.9906833,12.8358331 17,12.6690045 17,12.5 C17,12.3309955 16.9906833,12.1641669 16.9725356,12 L13,12 L13,8.02746439 C12.8358331,8.00931666 12.6690045,8 12.5,8 C12.3309955,8 12.1641669,8.00931666 12,8.02746439 Z" id="Combined-Shape"></path>
            <path d="M12.5,21.5 C7.52943725,21.5 3.5,17.4705627 3.5,12.5 C3.5,7.52943725 7.52943725,3.5 12.5,3.5 C17.4705627,3.5 21.5,7.52943725 21.5,12.5 C21.5,17.4705627 17.4705627,21.5 12.5,21.5 Z M12.5,20.5 C16.918278,20.5 20.5,16.918278 20.5,12.5 C20.5,8.081722 16.918278,4.5 12.5,4.5 C8.081722,4.5 4.5,8.081722 4.5,12.5 C4.5,16.918278 8.081722,20.5 12.5,20.5 Z" id="Oval-Copy-2"></path>
        </g>
    </g>
</svg>