<?xml version="1.0" encoding="UTF-8"?>
<svg width="518px" height="222px" viewBox="0 0 518 222" version="1.1" xmlns="http://www.w3.org/2000/svg" xmlns:xlink="http://www.w3.org/1999/xlink">
    <!-- Generator: Sketch 48.2 (47327) - http://www.bohemiancoding.com/sketch -->
    <title>tdc-logo</title>
    <desc>Created with Sketch.</desc>
    <defs></defs>
    <g id="Page-1" stroke="none" stroke-width="1" fill="none" fill-rule="evenodd">
        <g id="tdc-logo" fill="#FBF9F3" fill-rule="nonzero">
            <path d="M237.3,163.13 L227,158.87 C223,178.87 210.71,187.94 196.93,187.94 C178.93,187.94 171.12,172.4 171.12,136.32 C171.12,97.48 180.12,84.2 198.18,84.2 C215.18,84.2 224.99,95.47 230.01,116.77 L241.31,113 C235.05,72.91 215.25,52.36 183.18,52.36 C142.83,52.37 117,86.2 117,136.32 C117,186.69 140.06,220.51 178.15,220.51 C206,220.51 230.79,202.47 237.3,163.13 Z M485.13,221.27 C503.261508,221.27 517.96,206.571508 517.96,188.44 C517.96,170.308492 503.261508,155.61 485.13,155.61 C466.34,155.61 452.05,169.9 452.05,188.44 C452.05,206.98 466.34,221.27 485.13,221.27 Z M447,163.13 L403.15,159.37 C399.64,179.17 390.37,187.94 377.09,187.94 C356.79,187.94 347.27,167.39 347.27,136.32 C347.27,105.5 356.79,84.95 376.09,84.95 C390.09,84.95 398.14,95.95 402.15,116.77 L446.54,113 C439,72.92 415,52.37 375.88,52.37 C325.51,52.37 293.18,86.2 293.18,136.32 C293.18,186.69 325.51,220.51 376.38,220.51 C412.71,220.51 439.52,202.47 447,163.13 Z M30.82,5.51 L27.06,54.88 L0,54.88 L0,89.21 L26.06,89.21 L25.81,166.89 C25.81,199.97 44.35,219.51 84.7,219.51 C94.0859723,219.431236 103.457741,218.763255 112.76,217.51 L112.76,181.42 C109.449878,181.91764 106.10732,182.168332 102.76,182.17 C82.76,182.17 76.95,173.17 76.95,164.63 L77.2,89.21 L110,89.21 L110,54.88 L77.18,54.88 L77.18,5.51 L30.82,5.51 Z M225.28,0 L225.28,217.51 L276.39,217.51 L276.39,0 L225.28,0 Z" id="Shape"></path>
        </g>
    </g>
</svg>