<?xml version="1.0" encoding="UTF-8"?>
<svg width="30px" height="24px" viewBox="0 0 30 24" version="1.1" xmlns="http://www.w3.org/2000/svg" xmlns:xlink="http://www.w3.org/1999/xlink">
    <!-- Generator: Sketch 48.2 (47327) - http://www.bohemiancoding.com/sketch -->
    <title>Shape</title>
    <desc>Created with Sketch.</desc>
    <defs></defs>
    <g id="Mobile_550px-Non-Retina" stroke="none" stroke-width="1" fill="none" fill-rule="evenodd" transform="translate(-501.000000, -5.000000)">
        <path d="M501,5 L530.827737,5 L530.827737,11.085652 L527.476232,11.085652 L527.476232,13.8320977 L530.831225,13.8320977 L530.831225,29 L501,29 L501,5 Z M507.394521,9.59789022 L507.394521,24.3869122 L506.383775,24.3869122 L506.383775,27 L512.438669,27 L512.438669,24.360093 L511.020139,24.360093 L511.020139,18.5313785 L514.914998,18.5313785 L514.914998,15.8852137 L511.025367,15.8852137 L511.025367,9.6372251 L513.316973,9.6372251 L513.316973,13.0960129 L515.382032,13.0960129 L515.382032,7 L506.382032,7 L506.382032,9.60057214 L507.394521,9.59789022 Z M515.382032,26.3527068 C515.432873,26.3884764 515.486867,26.4197909 515.543381,26.4462834 C516.700421,26.8885821 517.945359,27.0696799 519.184607,26.9759624 C520.415571,26.8806202 521.541387,26.4992513 522.466876,25.6517648 C523.565499,24.6489058 523.977935,23.3688481 523.98428,21.9528395 C523.99969,18.0102618 523.989719,14.0676841 523.989719,10.1233408 L523.989719,9.58218535 L525.382032,9.58218535 L525.382032,7 L518.68787,7 L518.68787,9.61396609 L520.287761,9.61396609 L520.287761,10.1798399 C520.287761,14.0335492 520.287761,17.8884356 520.287761,21.744499 C520.292163,22.0238111 520.281573,22.3031564 520.256035,22.5813919 C520.185332,23.238194 519.96597,23.8234893 519.300633,24.1280548 C518.724128,24.3928943 518.112272,24.3928943 517.43515,24.3213876 L517.43515,20.0274561 L515.382032,20.0274561 L515.382032,26.3527068 Z" id="Shape" fill="#FBF9F3" fill-rule="nonzero"></path>
    </g>
</svg>