<svg xmlns="http://www.w3.org/2000/svg" viewBox="0 0 1112.95 687.9" fill="#FBF9F3"><title>Asset 1</title><g id="Layer_2" data-name="Layer 2"><g id="Layer_1-2" data-name="Layer 1"><path d="M0,0H1112.9V174.43h-67.4v78.72H1113V687.9H0ZM663.16,551.54c-1.62-9.62-.9-124.44,1.42-128.6,4,11,6.43,21.58,9.46,31.91,3.1,10.53,6,21.11,9,31.67s6,21.12,9,31.68,6,21.12,9,31.68,6,21,9,31.41h39.33V386.6h10.57V357.25H711.77v29.28l10.08.46c1.37,9.81.75,100.12-1.37,103.56C707,446.29,694.73,401.66,681.9,357.29H620.82V386.8H635.4V552H620.72v29.21h54.2V552.12ZM539.21,235.2c15.09-2.11,21.64,2.44,23,16.74,1.45,15.74,2,31.56,3,47.34.58,9.75,1.17,19.5,1.76,29.41H613.6V299.54l-9.1-.64c-.22-1.21-.43-2-.5-2.84q-1.87-23.4-3.73-46.79c-1.27-16.08-7.26-23.4-22.63-27.69-1.16-.33-2.27-.84-3.31-1.23.14-.69.12-.93.21-1,1.38-.92,2.76-1.84,4.17-2.71,12-7.38,20.4-17.64,24.28-31.19a90.41,90.41,0,0,0-.53-51.23c-4.16-14.12-13.64-23.14-27.81-26.65a99.21,99.21,0,0,0-21.66-3c-20.32-.4-40.66-.14-61-.14h-4.66v29.26l11,.57v165.2H484.43v29.15h54.78ZM769.63,134V299l-11.2.54v29h52.26V235.28c13.81-2.47,21.06,2,22.5,15.15,1.59,14.54,2,29.21,2.92,43.83.7,11.42,1.34,22.84,2,34.28h46.77V299.6l-9.42-.74c-1.41-17.27-2.68-34-4.18-50.78-1.38-15.32-7.43-22.38-22.15-26.44-1.3-.36-2.55-.86-4.68-1.58l5.93-3.69C862.59,208.66,871,198,874.64,184a92.26,92.26,0,0,0-.74-49.34c-4.09-14.26-13.65-23.51-28-27.1a93.45,93.45,0,0,0-20.67-3c-20.82-.38-41.66-.14-62.49-.12-1.42,0-2.85.23-4.19.35V134ZM601.09,469c-.61-16.88-.83-33.86-2-50.79-.88-13.15-3.7-26-9.6-38-6.16-12.49-15.67-21-29.4-24.18a71.91,71.91,0,0,0-14.34-1.67c-20.52-.47-36.66,7.08-46.11,26.16a83.61,83.61,0,0,0-4.61,11.56c-5.09,15.85-6.34,32.3-6.64,48.78-.35,19-.32,38,0,57,.27,16.49,1.67,32.92,6.73,48.77,7,22,20.74,36.14,44.92,37.61,23.54,1.44,41.4-6.85,51.14-29.86A103.74,103.74,0,0,0,599.17,520C600.2,503,600.49,486.06,601.09,469Zm189.65-82.18V552H776.59v29.18H885.2V510.3H861.1v41.11H832.58V480.1h45.87V449.63H832.64V387.08h28.87v37.25h23.66V357.2H780.48v29.59Zm163.7-189.5v-63h27.68v37.25h23.76V104.79H896.7V134h16V299l-10.16.51v29.05h104.5V257.72h-24v41.15H954.28V227.75h44.6V197.29ZM683,197.36v-63h27.83v37.34h23.71V104.8H625.71v29.26h16.08V299l-10.41.51v29.09H735.91V257.66H711.82v41.19h-29V227.61h44.95V197.36ZM1005.33,365A9,9,0,0,0,1004,364c-18.33-8.79-37.49-11.45-57.37-7.09-18,3.95-31.06,14.32-35.77,32.45-7,26.93-4,52.49,15.44,73.88,9.28,10.2,19.75,19.33,30,28.63,11.45,10.41,17.58,22.77,15.86,38.52-.78,7.24-3.05,13.69-9.19,18.11-9.4,6.77-20,5.46-31.3,4.95V510.26H908.1v63.85c18.08,8.27,36.66,11.83,56.12,8.29,20.07-3.64,35.18-14.21,42.26-33.92,7.41-20.65,6.15-41.26-2.61-61.31-5.24-12-14-21.43-23.37-30.25-8.14-7.63-16.51-15-24.38-22.92s-10.7-18.29-9.72-29.4c.75-8.59,4.74-15.13,13.31-18.22,6.94-2.49,14-1.45,21.66-1.53v39.36h24Zm-631-231.13V299.3h-11.6v29.23h69.49V299H415.94v-65.2h44.7V204.2H416V134.31h26.3V173H466V104.81H362.71V133.9ZM361.24,576.41a11.72,11.72,0,0,0,1.78,1.06,90.72,90.72,0,0,0,40.17,6c13.58-1.08,26-5.4,36.21-15,12.12-11.36,16.67-25.86,16.74-41.9.17-44.66.06-89.32.06-134v-6.13h15.36V357.19H397.71V386.8h17.65v6.41q0,65.48,0,131a90.82,90.82,0,0,1-.35,9.48c-.78,7.44-3.2,14.07-10.54,17.52-6.36,3-13.11,3-20.58,2.19V504.76H361.24Z"/><path d="M539.6,206.14V133.52c13.11-3.49,23.9,2.49,26.77,15.57a92.56,92.56,0,0,1-.73,42.52C562.58,203.89,553.44,208.76,539.6,206.14Z"/><path d="M810.74,206.17V133.56c13.71-3.47,24.6,2.83,27.11,16.18a98.72,98.72,0,0,1-.48,39.71C834.26,203.54,825.76,208.8,810.74,206.17Z"/><path d="M561.13,470q0,25.74,0,51.5c0,8.37-.82,16.65-3.87,24.53-1.8,4.64-4.43,8.66-9.92,9.54-6.55,1-11.56-1.55-13.79-8.68-2.11-6.76-4-13.93-4-20.94q-.59-56.25,0-112.49c.06-6.7,1.92-13.48,3.68-20,1.48-5.5,5.29-9.24,11.48-9.48,5.63-.22,10.33,2.66,12.3,9.09,2,6.61,3.69,13.59,3.88,20.46.52,18.81.18,37.66.18,56.49Z"/></g></g></svg>